# xmcd
#
# Track frame offsets: 
#        150
#        21482
#        49967
#        69272
#        89507
#        103995
#        134520
#        166627
#        180147
#        215070
#
# Disc length: 3072 seconds
#
# Revision: 5
# Processed by: cddbd v1.5.2PL0 Copyright (c) Steve Scherf et al.
# Submitted via: ExactAudioCopy v1.3
#
DISCID=8b0bfe0a
DTITLE=Aretha Franklin - Hey Now Hey (The Other Side of the Sky)
DYEAR=1973
DGENRE=Soul
TTITLE0=Hey Now Hey (The Other Side of the Sky)
TTITLE1=Somewhere
TTITLE2=So Swell When You're Well
TTITLE3=Angel
TTITLE4=Sister from Texas
TTITLE5=Mister Spain
TTITLE6=That's the Way I Feel About Cha
TTITLE7=Moody's Mood
TTITLE8=Just Right Tonight
TTITLE9=Master of Eyes (The Deepness of Your Eyes)
EXTD=
EXTT0=
EXTT1=
EXTT2=
EXTT3=
EXTT4=
EXTT5=
EXTT6=
EXTT7=
EXTT8=
EXTT9=
PLAYORDER=
